<svg width="24" height="20" viewBox="0 0 24 20" fill="none" xmlns="http://www.w3.org/2000/svg">
<path d="M14.2365 1C14.8644 1.00862 15.4634 1.12635 16.0228 1.40755C16.516 1.65706 16.9181 2.00593 17.1926 2.48677C17.371 2.8042 17.488 3.15168 17.5376 3.51145C17.6397 4.20206 17.5365 4.87018 17.306 5.52349C17.1706 5.90667 16.9832 6.26603 16.7802 6.61903C16.3667 7.33757 15.8354 7.96033 15.2174 8.51241C14.4245 9.2214 13.5551 9.84195 12.6248 10.3629C12.2644 10.564 11.8907 10.7329 11.4887 10.8362C11.2425 10.9019 10.9883 10.9337 10.7332 10.9307C10.3975 10.9239 10.1348 10.7728 9.93047 10.5183C9.74183 10.2898 9.64463 10.0008 9.65732 9.70617C9.65955 9.62421 9.67152 9.54279 9.69299 9.4636C9.81457 9.03674 9.97979 8.62788 10.2268 8.25502C10.4155 7.97026 10.6405 7.71738 10.9347 7.53647C11.2619 7.33514 11.6175 7.24909 12.0022 7.33214C12.1225 7.36 12.2357 7.412 12.3347 7.48492C12.588 7.66376 12.5747 7.94439 12.4531 8.12361C12.3489 8.27935 12.2325 8.42672 12.1048 8.56433C11.8886 8.79454 11.6589 9.01219 11.4347 9.23489C11.2363 9.43192 11.0498 9.63869 10.8986 9.87433C10.8203 9.99656 10.748 10.1212 10.7264 10.268C10.6991 10.4521 10.7958 10.5775 10.9838 10.5948C11.0811 10.6026 11.179 10.5929 11.2727 10.5661C11.5616 10.4871 11.8298 10.3599 12.0933 10.2226C12.4996 10.0102 12.8746 9.7506 13.2401 9.47672C13.6832 9.14472 14.114 8.79848 14.511 8.41343C14.9632 7.97533 15.3663 7.49917 15.6747 6.94971C15.9001 6.54854 16.0661 6.12487 16.1398 5.67046C16.2051 5.27023 16.1687 4.8803 15.9811 4.51288C15.8907 4.33126 15.7494 4.17918 15.574 4.07477C15.493 4.02659 15.4037 3.99366 15.3105 3.97767C14.9716 3.91824 14.6436 3.96698 14.3213 4.07327C13.9854 4.18425 13.6737 4.34622 13.3708 4.52319C12.7134 4.90861 12.0551 5.29385 11.4286 5.72783C11.1145 5.94528 10.81 6.17661 10.5022 6.40269C10.2241 6.60703 9.94792 6.8138 9.64405 6.98083C9.39744 7.11961 9.13054 7.21972 8.85287 7.27759C8.50878 7.34657 8.19162 7.28246 7.90026 7.09762C7.5979 6.90585 7.38621 6.64265 7.29327 6.29434C7.23409 6.07445 7.25742 5.85643 7.30844 5.63934C7.38299 5.32066 7.5245 5.03196 7.7009 4.75827C8.13718 4.08227 8.68575 3.50882 9.32367 3.01861C10.2691 2.29219 11.3093 1.73279 12.4345 1.32806C13.0122 1.11922 13.6215 1.00831 14.2365 1Z" fill="#E20010"/>
<path d="M6.45857 16.4552C6.45535 16.243 6.43088 16.0522 6.30682 15.8866C6.24641 15.8066 6.16278 15.7467 6.06706 15.7149C5.82047 15.6275 5.56932 15.6379 5.32444 15.7127C5.12811 15.7726 4.93881 15.8544 4.74665 15.9273C4.70872 15.9412 4.67419 15.959 4.62829 15.9792C4.53781 15.7575 4.44885 15.5423 4.35571 15.3173C4.49058 15.2541 4.61767 15.1896 4.74874 15.1343C5.05072 15.0067 5.36389 14.9191 5.69319 14.8994C6.02248 14.8798 6.34741 14.897 6.64712 15.0548C6.98609 15.2322 7.23078 15.4883 7.33321 15.8609C7.34799 15.9097 7.35684 15.9601 7.35958 16.0109C7.37267 16.4948 7.39031 16.9786 7.39239 17.4624C7.39372 17.7931 7.37172 18.124 7.36185 18.4549C7.36009 18.5002 7.34097 18.5432 7.30836 18.5752C7.0741 18.8302 6.78749 19.0064 6.46274 19.1247C6.11451 19.2503 5.74367 19.3029 5.37376 19.2793C5.03232 19.2606 4.73755 19.1224 4.4883 18.8932C4.23905 18.6639 4.06492 18.387 4.01636 18.0477C3.94997 17.583 4.0856 17.1797 4.42362 16.8479C4.641 16.6346 4.90884 16.5244 5.21063 16.4854C5.54447 16.4425 5.87946 16.4539 6.21444 16.4548L6.45857 16.4552ZM6.41475 17.2107C6.39508 17.2068 6.37519 17.2041 6.35519 17.2026C6.24138 17.2004 6.12624 17.1964 6.01186 17.1981C5.87472 17.2002 5.737 17.2007 5.60062 17.2135C5.45968 17.2268 5.32292 17.2675 5.21366 17.3605C5.03232 17.5149 4.97845 17.7166 5.02265 17.944C5.07766 18.2252 5.23661 18.4217 5.52 18.5053C5.66612 18.5485 5.82085 18.5549 5.97013 18.524C6.10888 18.4989 6.23831 18.4376 6.34495 18.3463C6.363 18.3325 6.37785 18.315 6.38848 18.295C6.39911 18.275 6.40529 18.253 6.4066 18.2305C6.41096 18.1317 6.42386 18.0331 6.42462 17.9343C6.42613 17.708 6.42272 17.4817 6.42082 17.2555C6.41969 17.2404 6.41766 17.2255 6.41475 17.2107Z" fill="#E20010"/>
<path d="M17.8673 17.1918C17.0535 17.1918 16.2549 17.1745 15.4452 17.1955C15.4494 17.2518 15.4518 17.305 15.4569 17.3569C15.4778 17.5693 15.5241 17.7757 15.6149 17.9705C15.6856 18.1294 15.7953 18.2683 15.934 18.3747C16.154 18.5398 16.4052 18.5668 16.6687 18.5333C16.8864 18.5055 17.0892 18.4268 17.2914 18.3475C17.3841 18.3113 17.4761 18.2725 17.5759 18.2322C17.6708 18.4283 17.7637 18.621 17.8605 18.8193C17.8426 18.8321 17.8259 18.8463 17.8073 18.8568C17.4128 19.0882 16.989 19.2372 16.5313 19.2766C16.114 19.3124 15.7157 19.2447 15.3553 19.0166C15.1098 18.8611 14.938 18.6416 14.7942 18.396C14.6171 18.0905 14.5099 17.7504 14.4801 17.3995C14.4199 16.7597 14.5573 16.1641 14.8924 15.6126C15.1261 15.2292 15.475 15.021 15.9116 14.9492C16.313 14.8794 16.7264 14.9474 17.0833 15.1419C17.2832 15.2489 17.4225 15.4174 17.5372 15.6064C17.689 15.8555 17.7688 16.1302 17.8071 16.4147C17.8383 16.6442 17.8481 16.8765 17.8667 17.1084C17.869 17.1322 17.8673 17.1569 17.8673 17.1918ZM16.8809 16.4635C16.8337 16.2496 16.8014 16.031 16.6597 15.8497C16.5887 15.7596 16.4889 15.6959 16.3765 15.669C16.0778 15.5908 15.7775 15.7269 15.6491 16.0065C15.6032 16.106 15.5763 16.2142 15.5429 16.319C15.5279 16.3664 15.5182 16.4157 15.5063 16.4635C15.5865 16.4845 16.7988 16.4854 16.8813 16.4641L16.8809 16.4635Z" fill="#E20010"/>
<path d="M12.5292 13.9247L13.5003 13.7762V14.9548C13.7157 14.9676 13.921 14.9537 14.1274 14.9756V15.7017C13.9187 15.7051 13.7144 15.6989 13.5014 15.7116C13.5014 15.7525 13.5014 15.783 13.5014 15.8136C13.4996 16.5125 13.4981 17.2114 13.4968 17.9104C13.4968 18.0204 13.5058 18.1306 13.5158 18.2403C13.5317 18.409 13.6264 18.5161 13.7918 18.5571C13.883 18.58 13.9767 18.5929 14.0693 18.6104L14.1623 18.6291V19.2453C14.1518 19.2504 14.1407 19.2541 14.1293 19.2562C13.8536 19.2684 13.5792 19.2612 13.3127 19.1812C13.0524 19.1036 12.8354 18.963 12.6882 18.7313C12.6046 18.6001 12.5621 18.4525 12.5437 18.3001C12.5325 18.2047 12.5271 18.1086 12.5274 18.0125C12.5274 16.6853 12.5281 15.3582 12.5296 14.0312L12.5292 13.9247Z" fill="#E20010"/>
<path d="M18.4014 13.9254L19.3404 13.7645V13.8926C19.3404 15.098 19.3409 16.3033 19.3419 17.5087C19.3419 17.7294 19.3438 17.95 19.3455 18.1709C19.347 18.3887 19.4274 18.4997 19.638 18.5645C19.7095 18.5841 19.7822 18.5995 19.8556 18.6106C19.9003 18.6189 19.9457 18.6228 20.0001 18.6294V19.2589C19.995 19.263 19.9891 19.2659 19.9827 19.2673C19.716 19.278 19.4504 19.2737 19.1911 19.1987C19.034 19.154 18.8877 19.0783 18.7611 18.976C18.5253 18.7854 18.4293 18.5298 18.4047 18.2417C18.3974 18.1574 18.3984 18.0721 18.3986 17.9873C18.3986 16.6687 18.3995 15.3502 18.4014 14.0318V13.9254Z" fill="#E20010"/>
<path d="M10.6415 19.2035H9.69309C9.69195 19.1643 9.69005 19.1285 9.68986 19.0931C9.68885 18.5299 9.68803 17.9668 9.6874 17.4036C9.68626 16.9537 9.68341 16.5038 9.6836 16.0539C9.6839 15.9723 9.69024 15.8909 9.70257 15.8102C9.71661 15.7181 9.76536 15.6415 9.83308 15.5768C10.2056 15.2184 10.652 15.0035 11.1609 14.9109C11.4798 14.8531 11.8067 14.8527 12.1258 14.9096C12.1427 14.9126 12.1596 14.9164 12.1761 14.9205C12.1842 14.9226 12.192 14.9265 12.2078 14.9325C12.1 15.2032 11.9688 15.4619 11.8451 15.7176C11.6973 15.7176 11.5573 15.7133 11.4177 15.7185C11.1766 15.7264 10.9399 15.7847 10.7233 15.8895C10.6618 15.9193 10.6389 15.9564 10.6391 16.0263C10.6417 17.0511 10.6423 18.0759 10.6409 19.1007L10.6415 19.2035Z" fill="#E20010"/>
<path d="M8.9937 14.9944C9.00375 16.3989 8.99275 17.7951 9.00186 19.2H8.07372C8.07145 19.1661 8.06689 19.1306 8.06689 19.0952C8.06689 18.2123 8.06689 17.3292 8.06689 16.446C8.06689 16.0412 8.07031 15.6365 8.07202 15.2318C8.07202 15.201 8.07202 15.1703 8.07202 15.1317L8.9937 14.9944Z" fill="#E20010"/>
<path d="M8.4906 14.5811C8.03744 14.58 7.75367 14.1342 7.94165 13.7133C8.05716 13.4552 8.25558 13.3572 8.54181 13.3588C8.92536 13.362 9.2097 13.739 9.11827 14.1074C9.04524 14.4017 8.80623 14.5819 8.4906 14.5811Z" fill="#E20010"/>
<rect x="0.05" y="0.05" width="23.9" height="19.9" stroke="#F8F7F8" stroke-width="0.1"/>
</svg>
