<svg width="24" height="21" viewBox="0 0 24 21" fill="none" xmlns="http://www.w3.org/2000/svg">
<path fill-rule="evenodd" clip-rule="evenodd" d="M9.70621 16.398C9.90896 16.398 10.0571 16.4425 10.1507 16.5315C10.2443 16.6205 10.2911 16.759 10.2912 16.9468V17.9538H9.9871V16.9894C9.9871 16.7771 9.87224 16.6709 9.64251 16.6709C9.54328 16.6701 9.44586 16.6985 9.36162 16.7529C9.37619 16.8164 9.38304 16.8816 9.38201 16.9468V17.9538H9.07788V16.9894C9.07788 16.7771 8.96302 16.6709 8.73329 16.6709C8.62846 16.671 8.5245 16.6906 8.42632 16.7286V17.9538H8.12235V16.5558C8.22298 16.5039 8.32952 16.4654 8.43943 16.4411C8.55668 16.4127 8.6766 16.398 8.79699 16.3972C8.98667 16.3972 9.12762 16.4354 9.21983 16.5119C9.37169 16.4367 9.5379 16.3977 9.70621 16.398ZM11.3332 18C11.1014 18 10.9271 17.9312 10.8105 17.7937C10.6938 17.6562 10.6355 17.4561 10.6353 17.1933C10.6353 16.6614 10.8672 16.3956 11.3309 16.3957C11.5645 16.3957 11.7402 16.4639 11.8579 16.6003C11.9756 16.7367 12.0345 16.9344 12.0346 17.1933C12.0346 17.4519 11.9738 17.651 11.8522 17.7906C11.7306 17.9302 11.5576 18 11.3332 18ZM11.3302 17.73C11.5967 17.73 11.7299 17.5511 11.7298 17.1933C11.7298 17.0153 11.6982 16.8824 11.635 16.7945C11.5718 16.7065 11.4704 16.6625 11.3309 16.6624C11.19 16.6624 11.0891 16.7074 11.0283 16.7974C10.9675 16.8874 10.9371 17.0194 10.9371 17.1933C10.9371 17.367 10.9685 17.5 11.0312 17.592C11.0939 17.6841 11.1935 17.7299 11.3302 17.7293V17.73ZM13.0499 16.3986C13.2661 16.3986 13.4302 16.4664 13.5421 16.6018C13.654 16.7372 13.7101 16.9291 13.7104 17.1774C13.7104 17.4766 13.6434 17.6884 13.5092 17.8127C13.3751 17.937 13.2046 17.9995 12.9977 18C12.5826 18 12.3751 17.8848 12.3751 17.6543V15.8218H12.6763V16.4927C12.7369 16.4627 12.8006 16.4398 12.866 16.4244C12.9261 16.4084 12.9878 16.3995 13.0499 16.398V16.3986ZM12.9745 17.7239C13.1325 17.7239 13.2432 17.6764 13.3064 17.5814C13.3696 17.4864 13.4013 17.356 13.4013 17.1901C13.4013 17.0204 13.368 16.891 13.3014 16.802C13.2348 16.713 13.1359 16.6685 13.0047 16.6686C12.9475 16.669 12.8906 16.6766 12.8352 16.6913C12.7798 16.7051 12.7265 16.7272 12.6771 16.7568V17.576C12.6766 17.6743 12.7757 17.7234 12.9745 17.7233V17.7239ZM14.0541 15.9012H14.3784V16.1894H14.0541V15.9012ZM14.0628 16.4411H14.3669L14.3698 17.9545H14.0628V16.4411ZM14.7978 17.9545V15.8552H15.0991V17.9538L14.7978 17.9545ZM16.1179 16.3944C16.3438 16.3944 16.5093 16.4708 16.6145 16.6238C16.7197 16.7767 16.7713 16.9905 16.7694 17.2652H15.7495C15.7593 17.4148 15.8015 17.5286 15.876 17.6065C15.9505 17.6843 16.0562 17.7232 16.1931 17.7231C16.3571 17.7233 16.5185 17.6805 16.6622 17.5988V17.896C16.5117 17.9653 16.3392 18 16.1447 18C15.9266 18 15.7552 17.9308 15.6307 17.7923C15.5061 17.6538 15.4439 17.4571 15.444 17.2024C15.444 16.9416 15.5029 16.742 15.6206 16.6036C15.7383 16.4652 15.904 16.3955 16.1179 16.3944ZM16.1092 16.6565C16.0068 16.6565 15.9267 16.6849 15.8689 16.7416C15.811 16.7982 15.7734 16.8943 15.7559 17.0296H16.4596C16.446 16.9002 16.4112 16.8057 16.3553 16.7461C16.2993 16.6866 16.2173 16.6567 16.1092 16.6565ZM13.2046 4.17955C12.8692 4.09359 12.611 4.05055 12.4301 4.05044C11.0803 4.05044 9.98599 5.18093 9.98599 6.57504C9.98599 7.96914 11.0808 9.09979 12.4301 9.09979C13.7794 9.09979 14.8743 7.9693 14.8743 6.57504C14.8744 6.37136 14.8507 6.16842 14.8038 5.97063L16.747 5.42816C16.9044 6.04841 16.9341 6.69604 16.8343 7.32899C16.7345 7.96194 16.5074 8.56605 16.1676 9.10208L12.95 15.2852H9.96908L12.0872 11.2384C12.0988 11.2161 12.0648 11.1669 12.0363 11.1643C9.77291 10.9513 8 8.98527 8 6.59175C8 4.05569 9.9901 2 12.4452 2C12.8947 1.99949 13.3416 2.06948 13.7708 2.20759L13.2046 4.17955Z" fill="#006E53"/>
<path d="M12.4462 7.97914C13.1896 7.97914 13.7922 7.35705 13.7922 6.58967C13.7922 5.82228 13.1896 5.2002 12.4462 5.2002C11.7027 5.2002 11.1001 5.82228 11.1001 6.58967C11.1001 7.35705 11.7027 7.97914 12.4462 7.97914Z" fill="#D6E806"/>
<path d="M16.4027 4.96023C15.9832 3.86217 15.1585 2.9796 14.1086 2.50537M14.7203 5.62116C14.4871 5.02061 14.0378 4.5358 13.4658 4.26776L14.7203 5.62116ZM15.5768 5.24339C15.2475 4.41048 14.6249 3.7361 13.8334 3.35503L15.5768 5.24339Z" stroke="#D6E806" stroke-width="0.4" stroke-linecap="round"/>
</svg>
