<svg width="24" height="21" viewBox="0 0 24 21" fill="none" xmlns="http://www.w3.org/2000/svg">
<path d="M12.1558 17.1871C16.0218 17.1871 19.1558 14.0531 19.1558 10.1871C19.1558 6.32108 16.0218 3.18707 12.1558 3.18707C8.28977 3.18707 5.15576 6.32108 5.15576 10.1871C5.15576 14.0531 8.28977 17.1871 12.1558 17.1871Z" fill="#50B651"/>
<path opacity="0.663" fill-rule="evenodd" clip-rule="evenodd" d="M19.1334 10.1673C19.1334 14.0455 15.9896 17.1893 12.1123 17.1893C8.23501 17.1893 5.09033 14.0455 5.09033 10.1673C5.09033 8.45176 5.13842 8.1967 5.8137 7.22002C5.8137 7.22002 5.77885 8.32319 6.58776 8.97965C7.09073 9.3875 7.61566 9.09307 8.57649 8.65055C9.61589 8.17144 10.4609 7.86237 11.1201 7.94391C12.1132 8.06691 15.174 9.90511 16.7715 9.53907C18.0476 9.24725 17.913 6.23846 17.913 6.23846C19.3067 7.59948 19.1334 8.51936 19.1334 10.1673Z" fill="url(#paint0_linear_107_334)"/>
<path opacity="0.586" fill-rule="evenodd" clip-rule="evenodd" d="M15.126 15.3253C17.6655 12.9365 18.0877 10.1998 16.3924 7.11528C16.401 7.12156 16.5059 6.75964 16.707 6.02954C17.6093 7.12214 18.089 8.47072 18.1463 10.0753C18.1458 12.1536 17.139 13.9036 15.126 15.3253Z" fill="url(#paint1_linear_107_334)"/>
<path opacity="0.744" fill-rule="evenodd" clip-rule="evenodd" d="M13.921 6.04462C12.6952 5.36621 11.2889 4.00154 11.4758 3.71494C11.6628 3.42835 14.0891 3.47765 15.3151 4.15607C16.5411 4.83448 17.5845 6.86956 17.3977 7.15615C17.211 7.44274 15.1468 6.72304 13.921 6.04462Z" fill="url(#paint2_radial_107_334)"/>
<path fill-rule="evenodd" clip-rule="evenodd" d="M14.9893 11.9113C13.9724 11.9113 13.1479 11.0634 13.1479 10.0176C13.1479 8.97172 13.9724 8.12396 14.9893 8.12396C16.0062 8.12396 16.8308 8.97172 16.8308 10.0176C16.8308 11.0634 16.0064 11.9113 14.9893 11.9113ZM15.0024 11.3106C15.637 11.3106 16.1522 10.7317 16.1522 10.0176C16.1522 9.30344 15.637 8.72502 15.0024 8.72502C14.3677 8.72502 13.8525 9.30396 13.8525 10.0179C13.8525 10.7319 14.3677 11.3106 15.0024 11.3106Z" fill="white"/>
<path fill-rule="evenodd" clip-rule="evenodd" d="M11.1895 6.59918H12.5163V11.8903H11.7879V7.17951H11.1895V6.59918Z" fill="white"/>
<path fill-rule="evenodd" clip-rule="evenodd" d="M10.2014 8.17778H10.8901V12.5964C10.8901 12.999 10.4666 13.4183 10.0538 13.5988C9.8587 13.6841 9.49864 13.7347 8.97366 13.7508V13.3112C9.48714 13.2539 9.83372 13.1397 10.0134 12.9685C10.1171 12.8244 10.1819 12.6561 10.2016 12.4796V11.1815C10.0175 11.5721 9.78564 11.8311 9.50607 11.9584C9.21547 12.1152 8.62399 12.0894 8.38252 11.9584C8.14105 11.8274 7.78686 11.4824 7.62449 10.9686C7.57954 10.8268 7.46769 10.4409 7.47936 10.032C7.48982 9.64263 7.61874 9.2306 7.72589 9.06126C7.90986 8.77205 8.19994 8.40985 8.63933 8.25845C8.85397 8.18446 9.25177 8.15786 9.83274 8.17865V8.61577C9.40102 8.58662 9.13167 8.6012 9.0247 8.6595C8.86424 8.74661 8.50204 8.85411 8.38252 9.6435C8.26301 10.4329 8.38601 11.0789 8.76494 11.2812C8.89473 11.3509 9.12436 11.4333 9.33656 11.3606C9.74423 11.2212 10.1279 10.7242 10.1571 10.3874C10.1866 10.0457 10.2014 9.30917 10.2014 8.17778Z" fill="white"/>
<path fill-rule="evenodd" clip-rule="evenodd" d="M18.9134 11.5725C18.263 14.7041 15.4881 17.0571 12.1638 17.0571C8.35651 17.0571 5.27002 13.9706 5.27002 10.1634C5.27002 7.79816 6.46117 5.71117 8.2762 4.46985C6.80142 5.69288 5.86237 7.54049 5.86237 9.60657C5.86237 13.2919 8.84991 16.2792 12.535 16.2792C15.5361 16.2792 18.0742 14.2982 18.9134 11.5725Z" fill="url(#paint3_radial_107_334)"/>
<path fill-rule="evenodd" clip-rule="evenodd" d="M12.1642 2C7.65532 2 4 5.65515 4 10.164C4 14.6728 7.65532 18.3281 12.1642 18.3281C16.673 18.3281 20.3283 14.6728 20.3283 10.164C20.3283 5.65515 16.673 2 12.1642 2ZM12.1642 17.0579C8.35691 17.0579 5.27042 13.9714 5.27042 10.1642C5.27042 7.79893 6.46156 5.71195 8.2766 4.47062C9.42128 3.68664 10.7767 3.26811 12.1642 3.27024C15.9714 3.27024 19.0579 6.35656 19.0579 10.164C19.0581 10.6374 19.0099 11.1095 18.9138 11.5731C18.2634 14.7047 15.4885 17.0577 12.1642 17.0577V17.0579Z" fill="white"/>
<defs>
<linearGradient id="paint0_linear_107_334" x1="11.841" y1="7.19737" x2="12.7411" y2="15.3253" gradientUnits="userSpaceOnUse">
<stop stop-color="#123214"/>
<stop offset="0.46" stop-color="#3E7C37"/>
<stop offset="0.91" stop-color="#5FBB46"/>
</linearGradient>
<linearGradient id="paint1_linear_107_334" x1="17.0411" y1="6.66916" x2="17.0411" y2="13.2417" gradientUnits="userSpaceOnUse">
<stop stop-color="white" stop-opacity="0"/>
<stop offset="0.64" stop-color="white" stop-opacity="0.43"/>
<stop offset="1" stop-color="white" stop-opacity="0.42"/>
</linearGradient>
<radialGradient id="paint2_radial_107_334" cx="0" cy="0" r="1" gradientUnits="userSpaceOnUse" gradientTransform="translate(14.586 5.48159) rotate(26.7606) scale(3.45903 1.44063)">
<stop offset="0.13" stop-color="white"/>
<stop offset="0.29" stop-color="white" stop-opacity="0.69"/>
<stop offset="0.45" stop-color="white" stop-opacity="0.4"/>
<stop offset="0.59" stop-color="white" stop-opacity="0.18"/>
<stop offset="0.69" stop-color="white" stop-opacity="0.05"/>
<stop offset="0.74" stop-color="white" stop-opacity="0"/>
</radialGradient>
<radialGradient id="paint3_radial_107_334" cx="0" cy="0" r="1" gradientUnits="userSpaceOnUse" gradientTransform="translate(13.3459 8.57504) rotate(39.84) scale(7.7516 8.44924)">
<stop offset="0.86" stop-opacity="0"/>
<stop offset="0.98" stop-opacity="0.47"/>
<stop offset="1"/>
</radialGradient>
</defs>
</svg>
