<svg width="16" height="16" viewBox="0 0 16 16" fill="none" xmlns="http://www.w3.org/2000/svg">
<path d="M15.2853 8C15.68 8 16.0033 7.67936 15.9681 7.28621C15.8253 5.6918 15.2066 4.17074 14.1841 2.92485C13.0099 1.49413 11.376 0.514799 9.56072 0.153718C7.74544 -0.207364 5.86112 0.0721488 4.22883 0.94463C2.59653 1.81711 1.31725 3.22858 0.608964 4.93853C-0.0993228 6.64849 -0.192794 8.55113 0.344477 10.3223C0.881748 12.0934 2.01652 13.6235 3.55544 14.6518C5.09436 15.68 6.94221 16.1429 8.78414 15.9615C10.3881 15.8035 11.9012 15.1655 13.1296 14.139C13.4325 13.8859 13.4306 13.4306 13.1515 13.1515C12.8724 12.8724 12.422 12.8759 12.1143 13.123C11.1235 13.9187 9.91873 14.4134 8.64403 14.5389C7.13121 14.6879 5.61353 14.3078 4.34958 13.4632C3.08563 12.6187 2.15362 11.362 1.71235 9.90734C1.27108 8.45266 1.34785 6.88997 1.92958 5.48555C2.51131 4.08112 3.56201 2.92186 4.90265 2.20527C6.24329 1.48868 7.79093 1.25911 9.28186 1.55568C10.7728 1.85224 12.1148 2.65659 13.0791 3.83167C13.8917 4.8218 14.3938 6.02352 14.5318 7.28668C14.5746 7.67907 14.8906 8 15.2853 8Z" fill="#297DE0"/>
</svg>
